# xmcd
#
# Track frame offsets:
#	182
#	14227
#	28167
#	47327
#	63095
#	79497
#	93932
#	110097
#	121390
#	131710
#	147132
#	160337
#	174640
#	187375
#
# Disc length: 2647 seconds
#
# Revision: 1
# Processed by: cddbd v1.5PL3 Copyright (c) Steve Scherf et al.
# Submitted via: dBpowerAMP V4.0
#
DISCID=cc0a550e
DTITLE=Michel Jonasz - Michel JONASZ
DYEAR=1970
DGENRE=Chanson
TTITLE0=la rencontre
TTITLE1=l'amour au monde
TTITLE2=mon eve
TTITLE3=lucifer
TTITLE4=la vie c'est comme ca
TTITLE5=appelez-moi frenesie
TTITLE6=o mon amour du bout du monde
TTITLE7=mais dans un ans ou deux
TTITLE8=le vent ne ramene jamais les nuages d autrefois
TTITLE9=adieu la terre
TTITLE10=le bleu du ciel
TTITLE11=viens si tu m'aimes
TTITLE12=attends
TTITLE13=la vie a deux
EXTD=
EXTT0=
EXTT1=
EXTT2=
EXTT3=
EXTT4=
EXTT5=
EXTT6=
EXTT7=
EXTT8=
EXTT9=
EXTT10=
EXTT11=
EXTT12=
EXTT13=
PLAYORDER=
